<?xml version="1.0" encoding="utf-8"?>
<!-- Generator: Adobe Illustrator 25.4.1, SVG Export Plug-In . SVG Version: 6.00 Build 0)  -->
<svg version="1.1" id="Layer_1" xmlns="http://www.w3.org/2000/svg" xmlns:xlink="http://www.w3.org/1999/xlink" x="0px" y="0px"
	 viewBox="0 0 232 233" style="enable-background:new 0 0 232 233;" xml:space="preserve">
<style type="text/css">
	.st0{fill:#FFFFFF;}
</style>
<path class="st0" d="M115.85,6.04c60.59-0.06,109.71,48.99,109.86,109.7c0.15,60.77-49.2,110.12-109.98,109.99
	C55.05,225.59,5.99,176.42,6.07,115.82C6.15,55.18,55.22,6.1,115.85,6.04z M215.14,116.09c0.09-54.85-43.99-99.23-98.74-99.41
	c-55.14-0.18-99.57,43.85-99.7,98.81c-0.13,55.13,43.88,99.5,98.89,99.68C170.55,215.34,215.05,171.05,215.14,116.09z"/>
<path class="st0" d="M123.16,116.21c8.5,8.36,16.66,16.32,24.69,24.4c1,1.01,2.25,3.37,1.83,3.92c-1.65,2.14-3.83,3.93-6.04,5.52
	c-0.33,0.24-2.03-1.14-2.89-1.99c-7.12-7.05-14.19-14.16-21.29-21.24c-1.06-1.06-2.18-2.06-3.53-3.32c-1.31,1.2-2.44,2.18-3.5,3.24
	c-7.19,7.18-14.43,14.32-21.52,21.6c-2,2.06-3.35,2.16-5.43,0.06c-4.67-4.72-4.77-4.62-0.16-9.24c6.69-6.7,13.3-13.49,20.12-20.05
	c2.43-2.33,2.71-3.84,0.11-6.33c-7.34-7.02-14.24-14.51-21.68-21.43c-3.38-3.14-1.54-4.67,0.65-6.95c2.34-2.45,3.96-3.62,6.95-0.42
	c7.03,7.53,14.57,14.57,21.75,21.96c2.07,2.13,3.39,2.03,5.4-0.04c7.29-7.48,14.88-14.66,22.05-22.25c3.03-3.21,4.59-1.35,6.62,0.79
	c1.91,2.01,4.34,3.44,0.95,6.61c-7.31,6.85-14.25,14.1-21.33,21.2C125.85,113.33,124.83,114.45,123.16,116.21z"/>
</svg>
