<?xml version="1.0" encoding="utf-8"?>
<!-- Generator: Adobe Illustrator 25.4.1, SVG Export Plug-In . SVG Version: 6.00 Build 0)  -->
<svg version="1.1" id="Layer_1" xmlns="http://www.w3.org/2000/svg" xmlns:xlink="http://www.w3.org/1999/xlink" x="0px" y="0px"
	 viewBox="0 0 234 232" style="enable-background:new 0 0 234 232;" xml:space="preserve">
<style type="text/css">
	.st0{fill:#FFFFFF;}
</style>
<path class="st0" d="M179.76,24.5c-4.31-6.48-4.61-6.52-8.97-2.15c-13.38,13.41-26.76,26.82-40.15,40.21
	c-0.93,0.93-1.87,2.39-2.95,2.54c-1.99,0.27-4.71,0.45-5.95-0.65c-1.07-0.95-0.79-3.78-0.55-5.71c0.12-0.96,1.46-1.8,2.3-2.64
	C138.74,40.8,154,25.51,169.26,10.23c4.57-4.57,6.31-4.58,10.8-0.08c10.48,10.5,20.96,21,31.44,31.51
	c4.64,4.66,4.67,6.31,0.15,10.85C161.4,102.87,111.13,153.21,60.9,203.61c-3.79,3.81-8.22,5.95-13.43,7.13
	c-4.99,1.12-9.67,3.03-15.1,2.16c-2.16-0.34-4.79,1.9-7.14,3.1c-2.42,1.23-4.78,1.8-6.95-0.3c-2.23-2.18-1.51-4.57-0.19-6.91
	c2.16-3.81,2.66-7.78,3.15-12.21c0.96-8.6,2.83-17.24,9.68-24.07c48.44-48.26,96.67-96.72,144.99-145.09
	C177.04,26.29,178.46,25.48,179.76,24.5z M147.37,69.89c-0.28,0.21-0.64,0.4-0.92,0.68c-36.68,36.74-73.38,73.46-109.97,110.28
	c-1.58,1.59-2.42,4.01-3.27,6.17c-0.9,2.3-1.87,4.74-1.95,7.15c-0.08,2.6-0.01,6.15,1.55,7.57c1.54,1.41,5.04,0.89,7.67,0.8
	c1.49-0.05,3.01-0.8,4.42-1.44c3.15-1.43,6.95-2.28,9.27-4.59c35.88-35.65,71.57-71.5,107.29-107.32c0.98-0.99,1.83-2.1,2.44-2.81
	C158.24,80.74,152.92,75.43,147.37,69.89z M203.27,46.7c-4.77-4.67-9.51-9.1-13.97-13.78c-2.06-2.16-3.34-2.13-5.41,0
	c-8.97,9.19-18.11,18.22-27.17,27.32c-0.62,0.62-1.1,1.39-1.57,2c5.57,5.6,10.94,10.99,16.05,16.12
	C181.64,68.06,192.15,57.68,203.27,46.7z"/>
<path class="st0" d="M155.63,206.55c-2.75-1.67-4.61-3.19-6.73-4.01c-8.63-3.33-17.39-6.32-25.99-9.71
	c-3.4-1.34-6.89-2.94-9.68-5.22c-5.25-4.29-4.47-11.37,1.85-13.76c6.22-2.36,12.93-3.83,19.55-4.63c6.53-0.79,13.22-0.32,19.84-0.24
	c3.78,0.04,5.99,2.05,5.76,5.05c-0.3,3.77-2.83,4.42-6.14,4.6c-9.89,0.52-19.76,1.31-29.64,2.02c-0.51,0.04-1,0.31-1.85,1.42
	c3.05,1.2,6.11,2.4,9.16,3.61c7.98,3.16,15.98,6.26,23.91,9.56c1.92,0.8,3.68,2.12,5.3,3.45c6.96,5.73,6.25,13.52-2.07,16.86
	c-5.94,2.38-12.39,3.9-18.75,4.74c-26.46,3.48-53.1,3.32-79.73,3.26c-1.55,0-3.48-0.01-4.56-0.86c-1.26-1-2.54-3-2.41-4.44
	c0.13-1.43,1.8-3,3.19-3.93c0.95-0.64,2.56-0.34,3.88-0.37c22.9-0.66,45.8-1.1,68.68-2.1c7.08-0.31,14.1-2.1,21.13-3.33
	C151.82,208.24,153.22,207.46,155.63,206.55z"/>
</svg>
